<svg xmlns="http://www.w3.org/2000/svg" width="216.554" height="102.597" viewBox="0 0 216.554 102.597">
    <g data-name="Group 2794">
        <path data-name="Path 1954" d="m1505.106 472.739 22.678-48.155s1.575-3.618-4.725-3.618h-61.733l-23.307 52.074" transform="translate(-1311.404 -372.543)" style="fill:#16225e"/>
        <path data-name="Path 1955" d="m1501.483 470.914 19.978-42.421s1.387-3.187-4.162-3.187h-54.382l-20.533 45.873" transform="translate(-1311.753 -372.89)" style="fill:#57c0cd"/>
        <path data-name="Path 1956" d="m1323.233 472.739-22.678-48.155s-1.575-3.618 4.725-3.618h61.733l23.307 52.074" transform="translate(-1300.381 -372.543)" style="fill:#16225e"/>
        <path data-name="Path 1957" d="m1327.788 470.914-19.978-42.421s-1.387-3.187 4.163-3.187h54.382l20.532 45.873" transform="translate(-1300.964 -372.89)" style="fill:#006fb9"/>
        <path data-name="Path 1958" d="M1400.889 423.717s3.78-4.41 3.78-5.355.63-5.984 2.205-6.3.945 4.725.945 4.725 4.725-.315 5.669-.315.629 5.669.629 5.669l-4.095 2.2-4.094 3.465" transform="translate(-1308.43 -371.828)" style="fill:#e4a081"/>
        <path data-name="Path 1959" d="m1434.89 441.459 14.908-.84s10.08-27.927 11.549-28.557 5.669 18.688 5.669 18.688-9.448 21.627-11.549 21.838-20.682-2.415-20.682-2.415z" transform="translate(-1311.145 -371.828)" style="fill:#f46e21"/>
        <path data-name="Path 1960" d="m1384.455 426.088 6.3 5.669 8.819-9.764 6.929 6.929-7.244 9.764-12.283.63z" transform="translate(-1307.114 -372.625)" style="fill:#52afba"/>
        <path data-name="Path 1961" d="m1380.592 378.511 2.205 8.189 4.724 4.095-3.779 1.575s1.889 7.559 1.259 8.5-6.3.945-6.3.945l-1.891 6.614-9.134-4.409.63-3.464-.63-17.953z" transform="translate(-1305.771 -369.142)" style="fill:#e4a081"/>
        <path data-name="Path 1962" d="M1367.48 398.483s-6.614-5.354-7.874-8.5-4.725-6.3.629-9.134a36.817 36.817 0 0 0 11.339-10.079c1.89-2.52 6.3-3.78 8.189-.316s.945 5.669 0 7.244-6.3 5.669-6.614 7.559c0 0-5.355-1.259-3.15 3.464s1.89 8.817-2.519 9.762z" transform="translate(-1304.943 -368.327)" style="fill:#16225e"/>
        <path data-name="Path 1963" d="M1366.307 406.239s-3.464-4.409-15.748 65.2l22.992.63s3.464-15.748 10.709-21.417l29.292-1.889V439s-23.937-2.205-25.828-3.464-9.448-19.843-10.393-20.788-.631-5.989-11.024-8.509z" transform="translate(-1304.4 -371.359)" style="fill:#57c0cd"/>
        <path data-name="Path 1964" d="M1385.8 452.409c-2.52.315-16.062-24.253-16.062-24.253l5.354 45.67s3.459-15.748 10.708-21.417z" transform="translate(-1305.935 -373.118)" style="mix-blend-mode:multiply;isolation:isolate;fill:#57c0cd"/>
        <path data-name="Path 1965" d="M1417.324 442.412s11.338-5.669 12.913-5.355.946 3.15-1.889 4.41 0 6.3 1.26 7.559a46.447 46.447 0 0 0 3.779 3.15 6.987 6.987 0 0 1-4.094 1.259 37.587 37.587 0 0 1-4.724-.315l-5.669-1.889z" transform="translate(-1309.747 -373.83)" style="fill:#e4a081"/>
        <path data-name="Path 1966" d="M1419.251 452.746s-1.05-1.47 2.52-2.729 4.83-.315 4.094.63c0 0 1.994-.211 1.259 1.05s-4.095 2.52-5.039 2.52a1.611 1.611 0 0 1-1.364-.735 2.79 2.79 0 0 1-1.47-.736z" transform="translate(-1309.889 -374.82)" style="fill:#ebb9a1"/>
        <path data-name="Path 1967" d="M1423.1 440.815s-1.155-2.52.21-2.729 11.759 6.614 11.864 6.929-.735 7.034-.735 7.034-8.08-2.94-11.339-11.234z" transform="translate(-1310.173 -373.913)" style="fill:#ebb9a1"/>
        <g data-name="Group 2793">
            <path data-name="Path 1968" d="m1477.578 406.382 6.479.748s16.892 22.523 12.2 37.069c0 0-5.1 27.406-10.263 27.875l-23.991-.19s3.623-43.9 1.523-60.283l3.625-2.558a15.088 15.088 0 0 1 10.427-2.661z" transform="translate(-1313.325 -371.367)" style="fill:#f46e21"/>
            <path data-name="Path 1969" d="m1472.923 465.672-7.86-21.937 4.458-2.229z" transform="translate(-1313.57 -374.188)" style="fill:#fff"/>
            <path data-name="Path 1970" d="m1473.286 465.431 38.477-10.792-5.161-23.462-38.477 6.1z" transform="translate(-1313.815 -373.361)" style="fill:#16225e"/>
            <path data-name="Path 1971" d="m1490.317 443.133 7.86 3.05a32.984 32.984 0 0 0-.7-15.133l-11.5 1.76" transform="translate(-1315.245 -373.35)" style="fill:#f46e21"/>
            <path data-name="Path 1972" d="M1475.265 422a53.794 53.794 0 0 1 12.67 22.054l9.384 1.407-7.507-3.754s-1.412-14.549-14.547-19.707z" transform="translate(-1314.387 -372.625)" style="fill:#ee5223"/>
            <path data-name="Path 1973" d="M1488.149 445.97s1.877 14.077 0 14.546-8.447-2.346-8.447-2.346-1.877 1.877 2.347 3.754-.235 2.463-4.107 3.636c0 0 2.6 4.82 6.8 4.457 6.8-.586 12.786-10.909 12.786-22.64z" transform="translate(-1314.601 -374.545)" style="fill:#ebb9a1"/>
            <path data-name="Path 1974" d="m1472.714 466.289-11.731-21.589 3.285-2.815 8.446 24.4" transform="translate(-1313.243 -374.219)" style="fill:#16225e"/>
        </g>
        <path data-name="Path 1975" d="m1469.009 405.494-.63-5.039s-3.15 2.1-6.3 1.259-2.52-8.4-2.52-8.4l-2.52-.63s2.52-5.039 3.15-5.46.84-6.719 1.47-7.348 4.619 6.089 4.619 6.089 1.68-3.78 3.57-2.1.42 5.88.42 5.88l1.68 6.3 5.039.42a57.647 57.647 0 0 0 1.051 6.509c.419 1.05 2.52 2.1 2.52 2.1z" transform="translate(-1312.927 -369.249)" style="fill:#ebb9a1"/>
        <path data-name="Path 1976" d="M1462.366 381.3s-6.089-2.939-3.779-4.409-3.99-2.73 2.31-4.2 9.029-1.68 10.709-.84 8.189 3.36 9.029 7.139-2.1 5.669-.63 8.189a4.941 4.941 0 0 1-1.47 6.719l-2.1 1.47h-4.409l-1.68-6.3s.84-5.669-1.68-6.509-2.31 2.729-2.31 2.729.844-2.73-3.99-3.988z" transform="translate(-1313.004 -368.57)" style="fill:#16225e"/>
        <rect data-name="Rectangle 721" width="84.095" height="5.039" rx="2.52" transform="translate(22.852 97.558)" style="fill:#16225e"/>
        <rect data-name="Rectangle 722" width="84.095" height="5.039" rx="2.52" transform="rotate(-180 96.851 51.298)" style="fill:#16225e"/>
    </g>
</svg>
