<svg xmlns="http://www.w3.org/2000/svg" width="126.637" height="156.099" viewBox="0 0 126.637 156.099">
    <g data-name="Group 2760">
        <path data-name="Path 1901" d="M1460.982 89.594c17.174 0 20.567 14.765 21.123 23.042v6.123a1.863 1.863 0 0 1-1.812 1.881h-81.416a1.649 1.649 0 0 1-1.585-1.711V98.593s.674-9-11.953-9z" transform="translate(-1355.468 -89.594)" style="fill:#0b2e63"/>
        <path data-name="Path 1902" d="M1449.255 89.594h-65.675c-2.472.24-6.748 1.665-6.748 8.667v145.218a2.211 2.211 0 0 0 2.244 2.213h65.675c2.471-.24 6.748-1.665 6.748-8.667V98.134s-.56-8.54 9.143-8.54z" transform="translate(-1355.424 -89.594)" style="fill:#fff"/>
        <path data-name="Path 1903" d="M1374.436 246.36c-15.553 0-18.624-13.367-19.124-20.862v-5.544a1.686 1.686 0 0 1 1.638-1.7h73.715a1.493 1.493 0 0 1 1.436 1.549v18.413s-.61 8.148 10.823 8.148z" transform="translate(-1355.312 -90.261)" style="fill:#f46e21"/>
        <g data-name="Group 2753">
            <path data-name="Rectangle 666" d="M2.884 0H42.2a2.882 2.882 0 0 1 2.882 2.882v.274A2.882 2.882 0 0 1 42.2 6.039H2.884A2.884 2.884 0 0 1 0 3.155v-.271A2.884 2.884 0 0 1 2.884 0z" style="fill:#57c0cd" transform="translate(28.339 11.738)"/>
            <path data-name="Rectangle 667" d="M2.884 0h3.48a2.885 2.885 0 0 1 2.885 2.885v.269a2.885 2.885 0 0 1-2.885 2.885H2.885A2.885 2.885 0 0 1 0 3.154v-.27A2.884 2.884 0 0 1 2.884 0z" transform="translate(79.741 11.738)" style="fill:#57c0cd"/>
        </g>
        <g data-name="Group 2754" transform="translate(28.339 28.316)">
            <path data-name="Rectangle 668" d="M2.885 0H42.2a2.882 2.882 0 0 1 2.882 2.882v.274A2.882 2.882 0 0 1 42.2 6.039H2.885A2.885 2.885 0 0 1 0 3.154v-.269A2.885 2.885 0 0 1 2.885 0z" style="fill:#57c0cd"/>
            <rect data-name="Rectangle 669" width="9.249" height="6.039" rx="2.885" transform="translate(51.402)" style="fill:#57c0cd"/>
        </g>
        <g data-name="Group 2755" transform="translate(28.339 44.894)">
            <path data-name="Rectangle 670" d="M2.885 0H42.2a2.882 2.882 0 0 1 2.882 2.882v.275A2.882 2.882 0 0 1 42.2 6.04H2.884A2.884 2.884 0 0 1 0 3.156v-.271A2.885 2.885 0 0 1 2.885 0z" style="fill:#57c0cd"/>
            <rect data-name="Rectangle 671" width="9.249" height="6.04" rx="2.885" transform="translate(51.402)" style="fill:#57c0cd"/>
        </g>
        <g data-name="Group 2756" transform="translate(28.339 61.473)">
            <path data-name="Rectangle 672" d="M2.885 0H42.2a2.882 2.882 0 0 1 2.882 2.882v.275A2.882 2.882 0 0 1 42.2 6.04H2.884A2.884 2.884 0 0 1 0 3.156v-.271A2.885 2.885 0 0 1 2.885 0z" style="fill:#57c0cd"/>
            <rect data-name="Rectangle 673" width="9.249" height="6.04" rx="2.885" transform="translate(51.402)" style="fill:#57c0cd"/>
        </g>
        <g data-name="Group 2757" transform="translate(28.339 78.051)">
            <path data-name="Rectangle 674" d="M2.885 0H42.2a2.882 2.882 0 0 1 2.882 2.882v.275A2.882 2.882 0 0 1 42.2 6.04H2.884A2.884 2.884 0 0 1 0 3.156v-.271A2.885 2.885 0 0 1 2.885 0z" style="fill:#57c0cd"/>
            <rect data-name="Rectangle 675" width="9.249" height="6.04" rx="2.885" transform="translate(51.402)" style="fill:#57c0cd"/>
        </g>
        <g data-name="Group 2758">
            <path data-name="Rectangle 676" d="M2.885 0H42.2a2.882 2.882 0 0 1 2.882 2.882v.273A2.882 2.882 0 0 1 42.2 6.038H2.884A2.884 2.884 0 0 1 0 3.154v-.269A2.885 2.885 0 0 1 2.885 0z" style="fill:#57c0cd" transform="translate(28.339 94.631)"/>
            <path data-name="Rectangle 677" d="M2.885 0h3.479a2.885 2.885 0 0 1 2.885 2.885v.269a2.884 2.884 0 0 1-2.884 2.884h-3.48A2.885 2.885 0 0 1 0 3.153v-.268A2.885 2.885 0 0 1 2.885 0z" transform="translate(79.741 94.631)" style="fill:#57c0cd"/>
        </g>
        <g data-name="Group 2759" transform="translate(28.339 111.208)">
            <path data-name="Rectangle 678" d="M2.885 0H42.2a2.882 2.882 0 0 1 2.882 2.882v.275A2.882 2.882 0 0 1 42.2 6.04H2.884A2.884 2.884 0 0 1 0 3.156v-.271A2.885 2.885 0 0 1 2.885 0z" style="fill:#57c0cd"/>
            <rect data-name="Rectangle 679" width="9.249" height="6.04" rx="2.885" transform="translate(51.402)" style="fill:#57c0cd"/>
        </g>
        <path data-name="Path 1904" d="M1482.446 120.8 1451.3 241.134V120.8z" transform="translate(-1355.81 -89.756)" style="fill:#9ac9d6;opacity:.6;mix-blend-mode:multiply;isolation:isolate"/>
    </g>
</svg>
