<svg xmlns="http://www.w3.org/2000/svg" width="179.894" height="136.937" viewBox="0 0 179.894 136.937">
    <defs>
        <clipPath id="zyjt5uzwka">
            <path data-name="Path 1899" d="M1083.486 188.941a35.354 35.354 0 1 1 35.354 35.353 35.356 35.356 0 0 1-35.354-35.353z" transform="translate(-1083.486 -153.585)" style="fill:none"/>
        </clipPath>
    </defs>
    <g data-name="Group 2750">
        <path data-name="Path 1879" d="M1146.006 107.355H986.362a10.156 10.156 0 0 0-10.125 10.125V221.2a10.153 10.153 0 0 0 10.125 10.123h159.645a10.154 10.154 0 0 0 10.125-10.123V117.48a10.156 10.156 0 0 0-10.125-10.125z" transform="translate(-976.237 -94.389)" style="fill:#57c0cd"/>
        <path data-name="Path 1880" d="M1138.2 122.124H997.049a5.129 5.129 0 0 0-4.851 5.306v16.248h150.85V127.43a5.129 5.129 0 0 0-4.848-5.306z" transform="translate(-977.515 -95.572)" style="fill:#fff"/>
        <path data-name="Path 1881" d="M1146.006 110.334a7.155 7.155 0 0 1 7.148 7.147V221.2a7.156 7.156 0 0 1-7.148 7.146H986.362a7.156 7.156 0 0 1-7.148-7.146V117.48a7.155 7.155 0 0 1 7.148-7.147h159.645m0-2.979H986.362a10.156 10.156 0 0 0-10.125 10.125V221.2a10.153 10.153 0 0 0 10.125 10.123h159.645a10.154 10.154 0 0 0 10.125-10.123V117.48a10.156 10.156 0 0 0-10.125-10.125z" transform="translate(-976.237 -94.389)" style="fill:#0f276d"/>
        <g data-name="Group 2748">
            <path data-name="Path 1882" d="M1080.243 188.681a38.337 38.337 0 1 1 38.337 38.337 38.336 38.336 0 0 1-38.337-38.337z" transform="translate(-984.567 -97.832)" style="fill:#0f276d"/>
            <path data-name="Path 1883" d="M1083.486 188.941a35.354 35.354 0 1 1 35.354 35.353 35.356 35.356 0 0 1-35.354-35.353z" transform="translate(-984.827 -98.091)" style="fill:#f46e21"/>
            <g data-name="Group 2747">
                <g data-name="Group 2746" style="clip-path:url(#zyjt5uzwka)" transform="translate(98.659 55.494)">
                    <g data-name="Group 2745">
                        <g data-name="Group 2725">
                            <path data-name="Path 1884" d="M1126.289 212.641s3.633 9.626 7.066 18.6h9.308c-1.422-4.392-2.866-9.076-3.024-9.934-.305-1.671-.442-6.622-2.349-10.1s-6.452-4.847-6.452-4.847c-7.501.34-4.549 6.281-4.549 6.281z" transform="translate(-1086.868 -157.811)" style="fill:#0070b5"/>
                        </g>
                        <g data-name="Group 2726">
                            <path data-name="Path 1885" d="M1100.815 221.8s1.45 4.719 2.853 9.2h30.373c.127-.395.286-.808.477-1.247 2.223-5.149 3.3-9.53 2.223-12.456s-7.242-10.932-8.835-11.249a47.931 47.931 0 0 1-6.163-2.48 24.872 24.872 0 0 0-8.7.287c-1.462.506-9.6 1.332-12.588 3.654-3.444 2.663.36 14.291.36 14.291z" transform="translate(-1084.73 -157.568)" style="fill:#0070b5"/>
                        </g>
                        <g data-name="Group 2727">
                            <path data-name="Path 1886" d="m1125.3 213.641 2.782-3.255-2.415-8.575a56.606 56.606 0 0 0-.367 11.83z" transform="translate(-1086.824 -157.447)" style="fill:#006fb9"/>
                        </g>
                        <g data-name="Group 2730">
                            <g data-name="Group 2729">
                                <g data-name="Group 2728">
                                    <path data-name="Path 1887" d="M1125.146 197.295s-.913 8.4-.723 11.129c0 0-4.755 4.764-10.163-5.56a14.18 14.18 0 0 0 .564-10.059c-1.715-5.805 10.322 4.49 10.322 4.49z" transform="translate(-1085.951 -156.584)" style="fill:#e1958a"/>
                                </g>
                            </g>
                        </g>
                        <g data-name="Group 2731">
                            <path data-name="Path 1888" d="M1124.832 209.938v4.354l-5.472-4.087z" transform="translate(-1086.359 -158.098)" style="fill:#e1958a"/>
                        </g>
                        <g data-name="Group 2732">
                            <path data-name="Path 1889" d="m1124.229 213.762-2.272-2.814-7.653-7.626-2.477 2.385z" transform="translate(-1085.756 -157.568)" style="fill:#006fb9"/>
                        </g>
                        <g data-name="Group 2733">
                            <path data-name="Path 1890" d="M1097.505 214.155s1.309 4.867 4.862 16.9h15.806c.489-6.333.762-11.377.65-12.9-.306-4.291-6.73-14.038-6.73-14.038s-4 .482-8.3 1.415c-4.904 1.061-6.288 8.623-6.288 8.623z" transform="translate(-1084.609 -157.632)" style="fill:#0070b5"/>
                        </g>
                        <g data-name="Group 2734">
                            <path data-name="Path 1891" d="M1127.412 205.218c3.915 4.686 5.3 14.981 5.526 25.927h3.515c4.077-8.533 2.987-12.4 2.987-12.4-2.131-7.292-8.466-12.475-8.466-12.475z" transform="translate(-1087.004 -157.72)" style="fill:#0070b5"/>
                        </g>
                        <g data-name="Group 2735">
                            <path data-name="Path 1892" d="m1128.121 210.386 3.5.967-5.919-9.542z" transform="translate(-1086.868 -157.447)" style="fill:#006fb9"/>
                        </g>
                        <g data-name="Group 2736">
                            <path data-name="Path 1893" d="m1121.99 210.949-3.2 4.2-6.538-10.958 2.085-.863z" transform="translate(-1085.79 -157.568)" style="fill:#006fb9"/>
                        </g>
                        <g data-name="Group 2737">
                            <path data-name="Path 1894" d="m1125.116 199.534-.167 1.653s-3.769.735-8.715-5.293c-.001 0 3.506 4.275 8.882 3.64z" transform="translate(-1086.109 -156.973)" style="fill:#e1958a"/>
                        </g>
                        <g data-name="Group 2740">
                            <g data-name="Group 2739">
                                <g data-name="Group 2738">
                                    <path data-name="Path 1895" d="M1123.787 197.43c1.489-.056 5.646-.54 7.7-10.118 2.5-11.7-3.03-17.763-7.77-18.887s-9.111.524-11.537 6.636c0 0-1.775 4.768 1.1 13.259s8.913 9.168 10.507 9.11z" transform="translate(-1085.741 -154.747)" style="fill:#e1958a"/>
                                </g>
                            </g>
                        </g>
                        <g data-name="Group 2741">
                            <path data-name="Path 1896" d="M1131.949 185.241c-6.063-8.791-12.281-9.286-12.281-9.286-2.355 8.889-4.521 8.045-5.146 9.3s.051 6.738.051 6.738c-12.664-7.645-6.309-24.6 6.2-24.6a11.857 11.857 0 0 1 6.7 2.267s6.369 3.775 7.346 13.315a19.4 19.4 0 0 0-1.616-2.029 10.618 10.618 0 0 1-.389 5.809 8.659 8.659 0 0 0-.865-1.514z" transform="translate(-1085.423 -154.691)" style="fill:#0f276d"/>
                        </g>
                        <g data-name="Group 2744">
                            <g data-name="Group 2743">
                                <g data-name="Group 2742">
                                    <path data-name="Path 1897" d="M1115.337 184.419c-.322-.831-1.2-1.164-1.678-.272s.093 4.349 1.377 4.728.952-2.768.301-4.456z" transform="translate(-1085.889 -155.99)" style="fill:#e1958a"/>
                                </g>
                            </g>
                        </g>
                        <path data-name="Path 1898" d="M1090.838 231.094h10.348c1.088-2.666 2.1-5.026 2.776-6.727 2.241-5.637 11.159-16.239 5.476-19.774 0 0-7.447-.458-11.181 3.886s-3.531 9.505-4.481 11.745c-.704 1.661-2.076 7.382-2.938 10.87z" transform="translate(-1084.075 -157.669)" style="fill:#0070b5"/>
                    </g>
                </g>
            </g>
        </g>
        <g data-name="Group 2749">
            <path data-name="Rectangle 661" d="M2.746 0h64.108A2.744 2.744 0 0 1 69.6 2.744a2.746 2.746 0 0 1-2.746 2.746H2.746A2.746 2.746 0 0 1 0 2.746 2.746 2.746 0 0 1 2.746 0z" transform="translate(14.682 96.198)" style="fill:#fff"/>
            <path data-name="Rectangle 662" d="M2.745 0h64.108A2.745 2.745 0 0 1 69.6 2.745a2.744 2.744 0 0 1-2.744 2.744H2.745A2.745 2.745 0 0 1 0 2.745 2.745 2.745 0 0 1 2.745 0z" transform="translate(14.682 112.195)" style="fill:#fff"/>
            <path data-name="Rectangle 663" d="M2.745 0h64.11A2.744 2.744 0 0 1 69.6 2.744a2.745 2.745 0 0 1-2.745 2.745H2.745A2.745 2.745 0 0 1 0 2.745 2.745 2.745 0 0 1 2.745 0z" style="fill:#fff" transform="translate(14.682 64.011)"/>
            <path data-name="Rectangle 664" d="M2.745 0h64.11A2.744 2.744 0 0 1 69.6 2.744a2.745 2.745 0 0 1-2.745 2.745H2.745A2.745 2.745 0 0 1 0 2.745 2.745 2.745 0 0 1 2.745 0z" transform="translate(14.682 80.008)" style="fill:#fff"/>
        </g>
        <path data-name="Path 1900" d="M1061.262 93.26v26.8a12.857 12.857 0 1 0 25.714 0v-26.8zm12.857 34.435a7.548 7.548 0 1 1 7.548-7.549 7.548 7.548 0 0 1-7.548 7.554z" transform="translate(-983.046 -93.26)" style="fill:#0f276d"/>
    </g>
</svg>
