<svg xmlns="http://www.w3.org/2000/svg" width="295.183" height="192.727" viewBox="0 0 295.183 192.727">
    <defs>
        <clipPath id="akjir8izea">
            <rect data-name="Rectangle 134" width="295.183" height="192.727" rx="20.835" style="fill:none"/>
        </clipPath>
    </defs>
    <g data-name="Group 843" style="clip-path:url(#akjir8izea)">
        <g data-name="Group 842">
            <g data-name="Group 790" transform="translate(182.252 41.559)">
                <circle data-name="Ellipse 4" cx="15.297" cy="15.297" style="fill:#0098df" r="15.297"/>
                <path data-name="Path 640" d="M579.486 891.891a5.578 5.578 0 0 0-9.777-3.657 5.578 5.578 0 0 0-9.777 3.656c-.022.734.1 6.636 9.44 9.608l.337.106.337-.106c9.329-2.97 9.462-8.864 9.44-9.607zm-9.777 8.548c-9.009-2.866-8.668-8.466-8.668-8.531a4.472 4.472 0 0 1 8.668-1.543 4.471 4.471 0 0 1 8.667 1.543c0 .065.341 5.665-8.667 8.531z" transform="translate(-554.412 -878.641)" style="fill:#fff"/>
            </g>
            <g data-name="Group 792" transform="translate(76.603 95.744)">
                <circle data-name="Ellipse 5" cx="15.378" cy="15.378" style="fill:#0098df" r="15.378"/>
                <g data-name="Group 791" transform="translate(4.09 9.28)">
                    <path data-name="Path 641" d="M503.186 933.2c-.194-.239-4.836-5.829-10.756-5.829s-10.561 5.59-10.757 5.829l-.531.65.531.651c.2.238 4.837 5.829 10.757 5.829s10.561-5.591 10.756-5.829l.533-.651zm-10.756 6.1c-5.5 0-9.96-5.452-9.96-5.452s4.459-5.451 9.96-5.451 9.96 5.451 9.96 5.451-4.458 5.452-9.96 5.452z" transform="translate(-481.142 -927.37)" style="fill:#fff"/>
                    <ellipse data-name="Ellipse 6" cx="3.955" cy="3.414" rx="3.955" ry="3.414" transform="translate(7.333 3.065)" style="fill:#fff"/>
                </g>
            </g>
            <g data-name="Group 798" transform="translate(76.04 54.604)">
                <circle data-name="Ellipse 7" cx="15.184" cy="15.184" style="fill:#142265" r="15.184"/>
                <g data-name="Group 797">
                    <path data-name="Path 642" d="M488.565 892.749c0 2.544-.222 4.686-.222 7.23h1.382c0-2.544-.22-4.686-.22-7.23a.471.471 0 0 0-.941 0z" transform="translate(-473.904 -889.544)" style="fill:#fff"/>
                    <g data-name="Group 794">
                        <g data-name="Group 793">
                            <path data-name="Path 643" d="M490.727 905.212a3.817 3.817 0 0 1-.632-1.431 3.383 3.383 0 0 1 .177-1.1 6.9 6.9 0 0 0 .239-1.222 4.278 4.278 0 0 0-3.429-4.337 4.438 4.438 0 0 0-.874-.087 5.31 5.31 0 0 0-3.478 1.385 7.574 7.574 0 0 0-2.15 3.7 8.87 8.87 0 0 0 .166 5.393 7.181 7.181 0 0 0 1.624 2.536 6.317 6.317 0 0 0 2.217 1.462 5.8 5.8 0 0 0 2.085.383 5.454 5.454 0 0 0 3.516-1.234 3.809 3.809 0 0 0 1.462-2.965 5.079 5.079 0 0 0-.923-2.483zm-1.207 4.658a4.63 4.63 0 0 1-4.561.677 5.3 5.3 0 0 1-1.855-1.224 6.16 6.16 0 0 1-1.389-2.169 7.822 7.822 0 0 1-.136-4.758 6.562 6.562 0 0 1 1.843-3.2 4.091 4.091 0 0 1 3.455-1.055 3.261 3.261 0 0 1 2.6 3.24 14.744 14.744 0 0 0-.416 2.494c.122 1.394 1.513 2.455 1.551 3.854a2.816 2.816 0 0 1-1.092 2.14z" transform="translate(-476.813 -887.842)" style="fill:#fff"/>
                        </g>
                        <path data-name="Path 644" d="m487.358 899.506 1.847-1.112.266-.159a.47.47 0 1 0-.474-.811l-1.848 1.11-.265.16a.47.47 0 0 0 .474.811z" transform="translate(-474.512 -887.726)" style="fill:#fff"/>
                    </g>
                    <g data-name="Group 796">
                        <g data-name="Group 795">
                            <path data-name="Path 645" d="M500.216 901.946a7.574 7.574 0 0 0-2.15-3.7 5.31 5.31 0 0 0-3.478-1.385 4.353 4.353 0 0 0-.874.087 4.278 4.278 0 0 0-3.429 4.337 6.9 6.9 0 0 0 .239 1.222 3.387 3.387 0 0 1 .177 1.1 3.821 3.821 0 0 1-.632 1.431 5.078 5.078 0 0 0-.923 2.486 3.8 3.8 0 0 0 1.462 2.964 5.448 5.448 0 0 0 3.514 1.235 5.8 5.8 0 0 0 2.086-.383 6.33 6.33 0 0 0 2.217-1.461 7.2 7.2 0 0 0 1.624-2.537 8.88 8.88 0 0 0 .167-5.396zm-1.135 5.03a6.159 6.159 0 0 1-1.389 2.169 5.317 5.317 0 0 1-1.855 1.224 4.632 4.632 0 0 1-4.562-.677 2.814 2.814 0 0 1-1.093-2.143c.038-1.4 1.428-2.46 1.551-3.854a14.75 14.75 0 0 0-.416-2.494 3.261 3.261 0 0 1 2.6-3.24 4.1 4.1 0 0 1 3.456 1.053 6.572 6.572 0 0 1 1.843 3.2 7.832 7.832 0 0 1-.135 4.762z" transform="translate(-473.616 -887.905)" style="fill:#fff"/>
                        </g>
                        <path data-name="Path 646" d="m491.629 898.693-1.847-1.112-.265-.159a.47.47 0 0 0-.474.811l1.847 1.112.265.159a.47.47 0 0 0 .474-.811z" transform="translate(-473.735 -887.725)" style="fill:#fff"/>
                    </g>
                </g>
            </g>
            <g data-name="Group 800" transform="translate(104.366 23.466)">
                <circle data-name="Ellipse 8" cx="15.342" cy="15.342" style="fill:#0081c8" r="15.342"/>
                <g data-name="Group 799">
                    <path data-name="Path 647" d="M511.582 890.85a6.506 6.506 0 0 1-4.439-1.738l-.014-.012a6.524 6.524 0 0 1-1.155-8.139l5.655-9.415 5.575 9.482a6.516 6.516 0 0 1-5.622 9.823zm.039-17.412-4.816 8.021a5.579 5.579 0 0 0 .983 6.931l.014.014a5.556 5.556 0 0 0 8.57-6.888z" transform="translate(-496.233 -865.856)" style="fill:#fff"/>
                    <path data-name="Path 648" d="M511.525 884.91a.484.484 0 0 1-.225-.91 3.4 3.4 0 0 0 1.7-3.552.483.483 0 0 1 .949-.188 4.338 4.338 0 0 1-2.2 4.6.481.481 0 0 1-.224.05z" transform="translate(-494.08 -862.867)" style="fill:#fff"/>
                </g>
            </g>
            <g data-name="Group 801" transform="translate(188.717 82.383)">
                <circle data-name="Ellipse 9" cx="15.213" cy="15.213" style="fill:#142265" r="15.213"/>
                <path data-name="Path 649" d="M582.934 922.244h-6.807v-6.807h-3.966v6.807h-6.807v3.966h6.807v6.807h3.966v-6.807h6.807z" transform="translate(-558.93 -909.014)" style="fill:#fff"/>
            </g>
            <g data-name="Group 839">
                <g data-name="Group 803">
                    <g data-name="Group 802">
                        <path data-name="Path 650" d="M540.429 1024.161s.908-2.511 1.746-4.28h4.591c1.621 3.029 1.487 9.269 1.621 12.681l-9.445.36c-1.659-1.612 1.487-8.761 1.487-8.761z" transform="translate(-379.869 -789.13)" style="fill:#f59484"/>
                    </g>
                    <path data-name="Path 651" d="M535.275 1034.86s1.368-6.484 3.926-8.19a4 4 0 0 1 2.771-4.263c3.2-1.065 7.388 4.057 7.388 4.057s2.844 7.205.925 8.4z" transform="translate(-381.013 -788.275)" style="fill:#e0e0df"/>
                </g>
                <path data-name="Path 652" d="M513.675 949.272c-.693-.737-2.025-2.525-1.678-3.805s10.788-14.867 10.788-14.867 8.379 2.427 8.126 5.159c0 0-10.366 13.763-11.226 14.058s-4.651.9-6.01-.545z" transform="translate(-389.391 -821.185)" style="fill:#eea576"/>
                <path data-name="Path 653" d="M535.414 923.936c2.309 1.434 1.835 5.671.261 8.146-.993 1.562-11.5 16.132-11.5 16.132s-6.8-3.173-8.214-8.145c0 0 7.533-9.743 9.6-12.24 3.566-4.302 5.811-6.403 9.853-3.893z" transform="translate(-387.948 -823.967)" style="fill:#e0e0df"/>
                <g data-name="Group 804">
                    <path data-name="Path 654" d="M526.269 978.17c-.424-2.588 1.287-23.99 1.287-23.99h23.422s3.805 5.762 4.774 9.07c1.661 5.665 2.385 9.621-.6 16.347 2.815.003-28.883-1.427-28.883-1.427z" transform="translate(-384.271 -812.72)" style="fill:#003761"/>
                </g>
                <g data-name="Group 807">
                    <g data-name="Group 805">
                        <path data-name="Path 655" d="M531.1 1023.9s.908-2.512 1.746-4.28h4.591c1.621 3.029 1.487 9.27 1.621 12.683l-16.523-.124c-1.657-1.617 8.565-8.279 8.565-8.279z" transform="translate(-385.652 -789.226)" style="fill:#f59484"/>
                    </g>
                    <g data-name="Group 806">
                        <path data-name="Path 656" d="M538.807 1027.692c.336-.344.726-3.589 1.207-3.593a1.251 1.251 0 0 1 1.1.887 3.686 3.686 0 0 1 .1 1.491l-.568 8.293h-17.865c-3.014 0-3.631-1.832-3.948-2.672a2.84 2.84 0 0 1-.075-1.73 96.932 96.932 0 0 0 13.517-7.973 2.9 2.9 0 0 1 1.82 2.251c.24.982.231 2.021.529 2.989.104.337 3.945.298 4.183.057z" transform="translate(-386.979 -788.229)" style="fill:#e0e0df"/>
                    </g>
                </g>
                <path data-name="Path 657" d="M529.344 1035.115s-2.846-30.058-2.31-41.67c.564-12.266 7.149-12.872 10.1-4.588s3.012 12.927 2.653 15.83c-.488 3.941-2.293 30.427-2.293 30.427z" transform="translate(-383.996 -802.257)" style="fill:#003761"/>
                <g data-name="Group 810">
                    <g data-name="Group 808">
                        <path data-name="Path 658" d="M550.359 923.919c-.027 2.533-4.549 9.228-10.865 9.158s-10.622-6.43-10.594-8.963a21.658 21.658 0 0 1 10.837-2.781 23.336 23.336 0 0 1 10.622 2.586z" transform="translate(-383.302 -824.514)" style="fill:#eea576"/>
                    </g>
                    <g data-name="Group 809">
                        <path data-name="Path 659" d="m533.184 915.067-.045 4.134-.075 6.873 10.768.118.094-8.574.027-2.433z" transform="translate(-381.808 -826.764)" style="fill:#eea576"/>
                        <path data-name="Path 660" d="m543.944 915.185-10.768-.118-.046 4.134-.045 4.133a21.586 21.586 0 0 0 10.81-3.744l.022-1.972z" transform="translate(-381.8 -826.763)" style="fill:#c6624b"/>
                    </g>
                </g>
                <g data-name="Group 813">
                    <g data-name="Group 812">
                        <g data-name="Group 811">
                            <path data-name="Path 661" d="M541.374 915.777a2.188 2.188 0 0 0 1.529-.2 5.039 5.039 0 0 0 1.237-.936 4.821 4.821 0 0 0 1.827-3.476 1.669 1.669 0 0 0-.525-1.207 1.591 1.591 0 0 0-1.564-.2 2.66 2.66 0 0 0-1.219 1.048z" transform="translate(-378.823 -828.709)" style="fill:#eca184"/>
                            <path data-name="Path 662" d="M533.545 915.777a2.188 2.188 0 0 1-1.529-.2 5.04 5.04 0 0 1-1.237-.936 4.826 4.826 0 0 1-1.826-3.476 1.674 1.674 0 0 1 .525-1.207 1.594 1.594 0 0 1 1.566-.2 2.663 2.663 0 0 1 1.218 1.048z" transform="translate(-383.284 -828.709)" style="fill:#eca184"/>
                        </g>
                        <path data-name="Path 663" d="M547.659 919.912c.389-4.183 1.48-6.621 2.154-9.039a7.385 7.385 0 0 0-1.136-7.045c-2.081-2.834-4.282-3.853-9.251-3.892-4.86-.039-10.577 2.241-9.9 7.476.247 1.924.741 4.69 1.061 6.669.266 1.646-.235 3.3.374 4.9 1.133 2.758 5.512 7.6 8.961 7.6 2.816-.006 7.468-4.844 7.737-6.669z" transform="translate(-383.098 -832.197)" style="fill:#eea576"/>
                    </g>
                    <path data-name="Path 664" d="M147.533 83.718c.213-2.656.428-5.314.872-7.94a5.748 5.748 0 0 1 .693-2.17 2.287 2.287 0 0 1 1.5-1.056 7.756 7.756 0 0 1-1.772 4.814c1.969.115 3.914.519 5.885.6a9.281 9.281 0 0 0 5.661-1.324 4.8 4.8 0 0 0 2.082-5.12c1.813 1.8 1.943 3.839 2.4 7.764.205 1.771.147 5.451.147 5.451s3.686-8.248 3.43-10.966-4.146-7.6-4.516-7.73a8.543 8.543 0 0 0-4.085-2.166c-5.5-1.571-12.8 3.055-14.095 5.607-1.95 3.816 1.798 14.236 1.798 14.236z"/>
                </g>
                <g data-name="Group 814">
                    <path data-name="Path 665" d="M527.159 974.017c2.653.784 22.34 2.484 29.816-2.883-2.739-8.051-4.753-10.514-5.746-17.918l.137-3.657 3.633-14.5-.844-11.8a61.213 61.213 0 0 0-6.843-1.54c-1.189 2.982-5.463 7.2-7.88 7.363-1.752.115-4.307-5.5-4.7-6.907 0 0-6.042 1.827-6.533 1.95-1.8 4.932-4.085 12.431-4.426 16.005-.317 3.322.352 4.231 2.835 7.616.153.212 1.845 18.087.551 26.271z" transform="translate(-385.168 -824.373)" style="fill:#88b2dc"/>
                </g>
                <path data-name="Path 666" d="M526.913 966.361s-2.047 26.473-.208 33.635 5.716 9.218 9.538 7.143 3.119-6.434 3.266-10.288c.189-5 .189-25.489.027-30.15-.151-4.344-12.236-6.065-12.623-.34z" transform="translate(-384.365 -809.655)" style="fill:#003761"/>
                <path data-name="Path 667" d="M540.087 1035.115s-2.846-30.058-2.312-41.67c.565-12.266 7.15-12.872 10.1-4.588s3.012 12.927 2.653 15.83c-.488 3.941-2.293 30.427-2.293 30.427z" transform="translate(-380.139 -802.257)" style="fill:#003761"/>
                <path data-name="Path 668" d="M536.063 965.8s1.537 28.516 1.608 34.164c.093 7.393 5.716 9.219 9.537 7.143s3.134-11.154 3.4-15 2.1-19.933 2.6-24.249-16.765-7.78-17.145-2.058z" transform="translate(-380.73 -809.625)" style="fill:#003761"/>
                <path data-name="Path 669" d="m541.71 921-.015.9c.4 2.408 1.219 10.6 1.219 13.584 0 20.917-3.4 57.884-3.857 62.543 0 0 5.576.109 12.405 0 0 0 2.927-13.028 2.059-21.052s-4.553-19.569-4.879-22.009-.946-9.391-.946-9.391 2.682-9.8 2.682-10.992-1.3-11.385-1.3-11.385z" transform="translate(-379.655 -824.633)" style="fill:#efeade"/>
                <path data-name="Path 670" d="M536.71 921.15s-7.994 2.2-8.752 2.858-4.609 12.2-4.933 16.921 1.684 5.137 2.927 7.59l-1.3 48.517s6.192 1.511 10.228.7c0 0-2.282-42.924-2.839-49.215s-.766-11.863-.55-13.009c.738-3.9 3.531-10.419 5.211-13.533z" transform="translate(-385.424 -824.579)" style="fill:#efeade"/>
                <g data-name="Group 815">
                    <path data-name="Path 671" d="M514.472 950.228c-2.054-2.838-2.869-7.813-3.149-10.286-.549-4.842-1.827-15.174-1.827-15.174s2.664-.385 4.538-.674c0 0 8.637 21.038 7.279 24.795-.741 2.05-4.086 5.147-6.841 1.339z" transform="translate(-390.269 -823.523)" style="fill:#eea576"/>
                </g>
                <g data-name="Group 827">
                    <path data-name="Path 672" d="M511.626 929.472s3.258.745 3.534-3c.111-1.522.28-5.092-.114-5.665s-5.833-1.6-6.963-.1c-1.151 1.386-.489 3.626-.333 4.411s1.99 4.406 3.876 4.354z" transform="translate(-391.015 -825.017)" style="fill:#eca184"/>
                    <path data-name="Path 673" d="M511.493 925.722c.41-2.537 1.014-2.574 1.918-4.155a38.3 38.3 0 0 1-4.757-1.394 1.692 1.692 0 0 0-.571.452c-1.151 1.386-.489 3.626-.333 4.411.1.514 1.393 2.438 2.1 2.343a2.183 2.183 0 0 0 1.643-1.657z" transform="translate(-391.015 -824.931)" style="fill:#eca184"/>
                    <g data-name="Group 822">
                        <g data-name="Group 819">
                            <g data-name="Group 816">
                                <path data-name="Rectangle 124" transform="rotate(-12.927 452.7 -473.416)" style="fill:#232424" d="M0 0h1.828v14.397H0z"/>
                                <path data-name="Rectangle 125" transform="rotate(-12.94 451.329 -480.058)" style="fill:#4b4e4e" d="M0 0h.333v14.397H0z"/>
                            </g>
                            <g data-name="Group 817">
                                <path data-name="Rectangle 126" transform="rotate(-12.94 452.81 -471.51)" style="fill:#868686" d="M0 0h2.58v.422H0z"/>
                                <path data-name="Rectangle 127" transform="rotate(-12.928 444.242 -470.639)" style="fill:#262626" d="M0 0h2.789v2.114H0z"/>
                                <path data-name="Rectangle 128" transform="rotate(-12.928 445.667 -480.41)" style="fill:#bbc1c0" d="M0 0h.361v1.409H0z"/>
                            </g>
                            <g data-name="Group 818">
                                <path data-name="Rectangle 129" transform="rotate(-12.928 504.055 -477.414)" style="fill:#6d6e6e" d="M0 0h2.789v3.234H0z"/>
                            </g>
                        </g>
                        <g data-name="Group 821" transform="translate(108.211 72.09)">
                            <circle data-name="Ellipse 10" cx="8.107" cy="8.107" style="fill:#868686" r="8.107"/>
                            <circle data-name="Ellipse 11" cx="7.925" cy="7.925" transform="translate(.183 .183)" style="fill:#262626" r="7.925"/>
                            <circle data-name="Ellipse 12" cx="7.62" cy="7.62" transform="translate(.487 .487)" style="fill:#6d6e6e" r="7.62"/>
                            <circle data-name="Ellipse 13" cx="7.315" cy="7.315" transform="translate(.792 .792)" style="fill:#e0e0df" r="7.315"/>
                            <g data-name="Group 820" style="mix-blend-mode:soft-light;isolation:isolate">
                                <path data-name="Path 674" d="M508.323 905.294a5.01 5.01 0 0 1 4.414 4.581c.018.233.383.25.366.015a5.389 5.389 0 0 0-4.763-4.962c-.235-.026-.249.34-.016.366z" transform="translate(-498.962 -902.495)" style="fill:#fff"/>
                                <path data-name="Path 675" d="M512.9 910.09a.225.225 0 0 1-.181-.205 4.963 4.963 0 0 0-4.388-4.552.22.22 0 0 1-.192-.253.187.187 0 0 1 .215-.174 5.432 5.432 0 0 1 4.792 4.99.176.176 0 0 1-.173.2.222.222 0 0 1-.073-.006zm-4.009-4.724a5.029 5.029 0 0 1 3.89 4.515.173.173 0 0 0 .189.155.117.117 0 0 0 .115-.135 5.37 5.37 0 0 0-4.738-4.933.126.126 0 0 0-.148.119.159.159 0 0 0 .139.185 5.224 5.224 0 0 1 .549.094z" transform="translate(-498.97 -902.503)" style="fill:#fff"/>
                            </g>
                        </g>
                    </g>
                    <g data-name="Group 826">
                        <path data-name="Path 676" d="M511.5 924.339a1.906 1.906 0 0 1 .531.189.767.767 0 0 1 .359.458.983.983 0 0 1-.044.561 1.62 1.62 0 0 1-1.277 1.017 2.934 2.934 0 0 1-1.555-.2c-.705-.285-2.449-1.017-2.618-1.693s.328-2.206.81-2.13a41.97 41.97 0 0 1 3.794 1.798z" transform="translate(-391.214 -824.081)" style="fill:#eca184"/>
                        <g data-name="Group 823">
                            <path data-name="Path 677" d="M507.481 923.777a5.32 5.32 0 0 0 3.6 1.386 2.013 2.013 0 0 0 .995-.5.8.8 0 0 0-.167-.13 1.9 1.9 0 0 0-.531-.189 41.955 41.955 0 0 0-3.793-1.8.217.217 0 0 0-.106.008c-.279.496-.412.886.002 1.225z" transform="translate(-391.087 -824.08)" style="fill:#c6624b"/>
                        </g>
                        <path data-name="Path 678" d="M510.716 923.071a1.731 1.731 0 0 1 .529.2.784.784 0 0 1 .349.5 1.233 1.233 0 0 1-.059.628c-.22.648.58 1.061.048 1.169a2.644 2.644 0 0 1-1.559-.181c-.7-.3-3.8-1.07-3.948-1.82s.387-2.471.871-2.4a38.484 38.484 0 0 1 3.769 1.904z" transform="translate(-391.507 -824.574)" style="fill:#eea576"/>
                        <g data-name="Group 824">
                            <path data-name="Path 679" d="M511.241 924.248c.7.023 1.079-.364 1.079-.5s.007-.375-.155-.478a1.739 1.739 0 0 0-.529-.2 38.507 38.507 0 0 0-3.769-1.9c-.179-.026-.366.192-.522.516a.76.76 0 0 0 .284.974 6.593 6.593 0 0 0 3.612 1.588z" transform="translate(-391.068 -824.574)" style="fill:#c6624b"/>
                        </g>
                        <path data-name="Path 680" d="M511.4 921.831a1.9 1.9 0 0 1 .591.22.88.88 0 0 1 .39.559 1.369 1.369 0 0 1-.065.7 2 2 0 0 1-1.465 1.3 2.966 2.966 0 0 1-1.741-.2c-.784-.334-2.721-1.195-2.889-2.032s.432-2.759.972-2.679a42.9 42.9 0 0 1 4.207 2.132z" transform="translate(-391.457 -825.099)" style="fill:#eea576"/>
                        <g data-name="Group 825">
                            <path data-name="Path 681" d="M510.635 922.806c1.571.264 2.033-.662 2.072-.806a2.263 2.263 0 0 0-.5-.169A42.858 42.858 0 0 0 508 919.7h-.043c-.269.48-.329.667-.068 1.082a6.784 6.784 0 0 0 2.746 2.024z" transform="translate(-390.907 -825.099)" style="fill:#c6624b"/>
                        </g>
                        <path data-name="Path 682" d="M511.135 920.542c.2.051 1.533.2 1.586.455a1.37 1.37 0 0 1-.066.7 2 2 0 0 1-1.464 1.3 2.963 2.963 0 0 1-1.741-.2c-.784-.334-2.721-1.195-2.891-2.032s.978-2.418 1.51-2.3c.8.182.376.72 1.375 1.3a9.363 9.363 0 0 0 1.691.777z" transform="translate(-391.33 -825.543)" style="fill:#eea576"/>
                    </g>
                    <path data-name="Path 683" d="M509.557 917.434a3.466 3.466 0 0 1 .217-.394 1.669 1.669 0 0 1 .443-.5.364.364 0 0 1 .473-.008 1.088 1.088 0 0 1 .163.61c.13 2.278 2.79 5.276 2.968 5.641a9.041 9.041 0 0 1-.448 2.835c-.158.564-1.006 1.359-1.415.977-.739-.69-2.161-2.7-2.177-3.944a8.769 8.769 0 0 0 .077-1.4c-.111-.506-.535-1.751-.584-2.266a2.848 2.848 0 0 1 .283-1.551z" transform="translate(-390.356 -826.267)" style="fill:#eea576"/>
                </g>
                <g transform="translate(155.08 126)">
                    <rect data-name="Rectangle 130" width="19.922" height="29.253" rx="1.066" transform="rotate(-61.935 14.647 8.79)" style="fill:#003761"/>
                    <path data-name="Rectangle 131" transform="rotate(-61.95 15.21 6.744)" style="fill:#f0f0f0" d="M0 0h16.894v26.096H0z"/>
                    <path data-name="Path 684" d="m546.279 946.486-6.144 11.525-.05.092.094.049 2.872 1.532.094.05.092.049 1.737.926.092.05.092.049 1.737.926.093.05.093.049 1.737.927.093.049.094.049 1.737.927.092.049.092.049 1.829.976.092.049 4.876 2.6.092.05.05-.094 6.144-11.523.049-.094-.092-.049-4.876-2.6-.092-.049-1.829-.976-.092-.049-.094-.05-1.736-.925-.094-.049-.092-.05-1.737-.925-.092-.049-.092-.05-1.74-.926-.092-.05-.094-.049-1.736-.925-.094-.05-.092-.049-2.872-1.532-.094-.049zm-2.994 13.2 2.13-3.993 1.736.926-2.128 3.993zm1.923 1.025 2.128-3.993 1.737.925-2.13 3.993zm1.922 1.025 2.128-3.993 1.737.927-2.128 3.992zm1.922 1.025 2.128-3.993 1.737.927-2.128 3.992zm4.048-2.961 1.829.976-2.128 3.993-1.829-.976zm10.813-3.907-6.144 11.525-4.875-2.6 2.128-3.993.05-.092.049-.092 3.917-7.347zm-4.967-2.649-3.917 7.346-1.829-.975 3.917-7.347zm-2.016-1.074-3.917 7.346-1.737-.926 3.917-7.347zm-1.922-1.026-3.917 7.347-1.737-.925 3.917-7.347zm-1.923-1.025-3.917 7.347-1.735-.925 3.917-7.347zm-1.922-1.025-3.917 7.347-1.737-.925 3.917-7.347zm-5.838 6.322-.05.092-.049.092-2.128 3.993-2.873-1.532 6.144-11.525 2.873 1.531z" transform="translate(-534.366 -941.516)" style="fill:#969595"/>
                    <g data-name="Group 828">
                        <path data-name="Path 685" d="m543.526 950.508-1.609 3.018a2.451 2.451 0 0 1-1.348 1.191l-3.074 1.016-.16-.485 3.074-1.017a1.937 1.937 0 0 0 1.057-.946l1.609-3.017a1.938 1.938 0 0 0 .2-1.405l-.87-3.119.492-.137.87 3.119a2.445 2.445 0 0 1-.241 1.782z" transform="translate(-535.353 -941.798)" style="fill:#003761"/>
                        <path data-name="Rectangle 132" d="M0 0h12.888v.569a.564.564 0 0 1-.564.564H.564A.564.564 0 0 1 0 .569V0z" transform="rotate(-61.935 12.465 6.114)" style="fill:#003761"/>
                    </g>
                </g>
                <g data-name="Group 838">
                    <path data-name="Path 686" d="m548.254 935.809 3.491 13.429s-5.644 17.84-6.844 20.538 2.142 3.434 3.409 2.319 7.113-11.894 8.245-14.178a55.915 55.915 0 0 0 3-6.848 14.291 14.291 0 0 0-.128-6.773c-.438-.939-3.952-11.72-3.952-11.72s-7.828 1.645-7.221 3.233z" transform="translate(-377.649 -820.477)" style="fill:#eea576"/>
                    <path data-name="Path 687" d="M545.347 922.546c-2.48.591-2.978 4.557-2.056 7.267.582 1.712 7.169 18.051 7.169 18.051s7.071-.795 9.5-4.849c0 0-4.882-11.08-6.26-13.96-2.379-4.967-4.012-7.545-8.353-6.509z" transform="translate(-378.29 -824.159)" style="fill:#efeade"/>
                    <g data-name="Group 837">
                        <g data-name="Group 836">
                            <g data-name="Group 835">
                                <g data-name="Group 830">
                                    <g data-name="Group 829">
                                        <path data-name="Path 688" d="M544.424 957.958c-.987 1.1.313 1.46 2.3 6.466.076.192 4.778-1.858 5.864-4.868 1.199-3.317-4.004-6.247-8.164-1.598z" transform="translate(-377.85 -812.229)" style="fill:#eea576"/>
                                    </g>
                                </g>
                                <g data-name="Group 834">
                                    <g data-name="Group 831">
                                        <path data-name="Path 689" d="m546.584 959.476-2.131 3.471a1.3 1.3 0 0 1-1.579.593 1.018 1.018 0 0 1-.3-1.5l2.687-4.193c.358-.574 1.675 1.053 1.323 1.629z" transform="translate(-378.462 -811.446)" style="fill:#eea576"/>
                                        <path data-name="Path 690" d="M542.479 962.758a.759.759 0 0 0 .188.165 1.1 1.1 0 0 0 1.352-.228 15.352 15.352 0 0 0 1.468-2.234 9.937 9.937 0 0 1 1.063-1.435l-2.131 3.471a1.3 1.3 0 0 1-1.579.592.833.833 0 0 1-.361-.331z" transform="translate(-378.427 -810.994)" style="fill:#c6624b"/>
                                    </g>
                                    <g data-name="Group 832">
                                        <path data-name="Path 691" d="m547.876 960.138-2.13 3.471a1.3 1.3 0 0 1-1.579.593 1.018 1.018 0 0 1-.295-1.5l2.128-3.471a1.3 1.3 0 0 1 1.579-.592 1.018 1.018 0 0 1 .297 1.499z" transform="translate(-377.997 -811.151)" style="fill:#eea576"/>
                                        <path data-name="Path 692" d="M543.772 963.459a.741.741 0 0 0 .188.166 1.058 1.058 0 0 0 1.352-.228 25.465 25.465 0 0 0 1.443-2.244 8.469 8.469 0 0 1 1.086-1.426l-2.13 3.471a1.3 1.3 0 0 1-1.579.593.846.846 0 0 1-.36-.332z" transform="translate(-377.962 -810.741)" style="fill:#c6624b"/>
                                    </g>
                                    <g data-name="Group 833">
                                        <path data-name="Path 693" d="m549.262 960.505-2.217 3.364a1.371 1.371 0 0 1-1.547.635c-.482-.209-.578-.836-.211-1.394l2.216-3.364a1.37 1.37 0 0 1 1.547-.633c.484.208.579.835.212 1.392z" transform="translate(-377.498 -810.973)" style="fill:#eea576"/>
                                        <path data-name="Path 694" d="M545.141 963.835a.607.607 0 0 0 .173.145 1.125 1.125 0 0 0 1.311-.28 18.463 18.463 0 0 0 1.485-2.261 5.959 5.959 0 0 1 1.124-1.309l-2.217 3.364a1.371 1.371 0 0 1-1.547.635.7.7 0 0 1-.329-.294z" transform="translate(-377.471 -810.598)" style="fill:#c6624b"/>
                                    </g>
                                    <path data-name="Path 695" d="M550.036 961.273 548.4 964a1 1 0 0 1-1.249.446.829.829 0 0 1-.261-1.2l1.64-2.73c.272-.451 2.456-2.15 2.87-1.943 0 .003.321.101-1.364 2.7z" transform="translate(-376.897 -811.147)" style="fill:#eea576"/>
                                </g>
                            </g>
                            <path data-name="Path 696" d="M549.512 955.928a8.863 8.863 0 0 0-2.544-.383 49.874 49.874 0 0 0-5.133 2.162c-1.157.458-.012 2.518 2.313 1.642a1.441 1.441 0 0 1 1.87.535z" transform="translate(-378.822 -812.235)" style="fill:#eea576"/>
                        </g>
                    </g>
                </g>
            </g>
            <g data-name="Group 841" transform="translate(147.12 15.967)">
                <circle data-name="Ellipse 14" cx="15.342" cy="15.342" style="fill:#142265" r="15.342"/>
                <g data-name="Group 840">
                    <g data-name="Rectangle 133" transform="rotate(50.28 4.964 24.992)" style="stroke:#fff;stroke-miterlimit:10;stroke-width:.848px;fill:none">
                        <rect width="8.339" height="21.681" rx="3.068" style="stroke:none"/>
                        <rect x=".424" y=".424" width="7.491" height="20.834" rx="2.644" style="fill:none"/>
                    </g>
                    <path data-name="Line 1" transform="translate(13.236 12.483)" style="stroke:#fff;stroke-miterlimit:10;stroke-width:.848px;fill:none" d="m0 0 4.798 5.771"/>
                </g>
            </g>
        </g>
    </g>
</svg>
