<svg xmlns="http://www.w3.org/2000/svg" width="200.079" height="143.133" viewBox="0 0 200.079 143.133">
    <defs>
        <linearGradient id="84oqvoe9ia" x1=".571" y1="1.795" x2=".493" y2=".379" gradientUnits="objectBoundingBox">
            <stop offset="0" stop-color="#c6ced9"/>
            <stop offset="1" stop-color="#e1e2f2"/>
        </linearGradient>
    </defs>
    <g data-name="Group 2903">
        <g data-name="Group 2833">
            <g data-name="Group 2799">
                <g data-name="Group 2798">
                    <g data-name="Group 2797">
                        <path data-name="Path 1977" d="M1389.395 632.5s3.925 1.919 2.954 7.142-1.4 5.926-.314 7.966 2.366 10.746 1.388 12.4-12.09-7.251-13.631-14.719.976-10.789 1.867-12.025 4.27-2.525 7.736-.764z" transform="translate(-1315.794 -610.953)" style="fill:#082a4e"/>
                    </g>
                </g>
            </g>
            <g data-name="Group 2800">
                <path data-name="Path 1978" d="M1391.455 653.066a5.466 5.466 0 0 1 3.119 2.059c.78 1.148.843 3.7.955 4.18s1.6 5.92 1.6 5.92l-4.162 2.788z" transform="translate(-1316.767 -612.669)" style="fill:#4f7fc1"/>
            </g>
            <g data-name="Group 2801">
                <path data-name="Path 1979" d="M1407.708 753.656s2.716 3.657 2.343 4.234-3.229.663-4.967 0-1.779-4.946-2.565-6.786c-.329-.77.375-3.045 1.366-3.211a4.179 4.179 0 0 1 2.067.319s-1.028 2.595 1.756 5.444z" transform="translate(-1317.647 -620.261)" style="fill:#122e43"/>
            </g>
            <g data-name="Group 2803">
                <g data-name="Group 2802">
                    <path data-name="Path 1980" d="M1406.041 748.179a17.268 17.268 0 0 1 .78 3.043c.173 1.233 1.935 3.851 1.852 4.182s-2.317.632-3.228-.222-1.5-3.337-1.7-4.821a11.94 11.94 0 0 0-.424-2.066s1.851-1.027 2.72-.116z" transform="translate(-1317.718 -620.256)" style="fill:#ea9771"/>
                </g>
            </g>
            <g data-name="Group 2804">
                <path data-name="Path 1981" d="M1382.006 753.717s2.616 3.6 2.245 4.174-3.229.663-4.967 0-1.78-4.946-2.567-6.786c-.328-.77.376-3.045 1.367-3.211a4.452 4.452 0 0 1 2.152.355s-1.014 2.619 1.77 5.468z" transform="translate(-1315.581 -620.261)" style="fill:#122e43"/>
            </g>
            <g data-name="Group 2806">
                <g data-name="Group 2805">
                    <path data-name="Path 1982" d="M1380.343 748.238a24.263 24.263 0 0 0 .538 2.9c.33 1.2 2.11 3.932 2.028 4.263s-2.317.632-3.229-.222-1.613-3.325-1.7-4.821a7.974 7.974 0 0 1 .208-2.472 2.023 2.023 0 0 1 2.155.352z" transform="translate(-1315.687 -620.25)" style="fill:#ea9771"/>
                </g>
            </g>
            <g data-name="Group 2808">
                <g data-name="Group 2807">
                    <path data-name="Path 1983" d="M1393.079 682.9s2.33 10.84 2.865 13.57 2.032 15.948 2.194 18.2 2.431 10.717 2.325 11.518 3.367 16.929 3.367 16.929a2.089 2.089 0 0 1-2.438.086c-.643-.447-7.623-15.1-7.623-19.11 0-5.548-4.1-12.79-4.63-14.031-4.919-11.531-3.95-15.055-4.592-15.805s-.7.463-1.073 2.121-1.178 16-1.659 17.821-.107 7.974-.374 11.078-1.441 17.137-1.441 17.137a1.276 1.276 0 0 1-2.187.037c-.275-.3-2.2-15.64-2.257-19.333s-.11-8.783-.213-10.381c-.991-15.3-3.428-17.487.409-28.317 7.185-20.277 17.327-1.52 17.327-1.52z" transform="translate(-1315.342 -614.426)" style="fill:#ea9771"/>
                </g>
            </g>
            <g data-name="Group 2809">
                <path data-name="Path 1984" d="M1377.368 680.292s-6.64 9.292-3.781 29.056c0 0 15.745 2.141 24.18-2.478 0 0-3.487-20.377-4.751-23.548s-15.648-3.03-15.648-3.03z" transform="translate(-1315.279 -614.85)" style="fill:#111742"/>
            </g>
            <g data-name="Group 2810">
                <path data-name="Path 1985" d="M1402.447 751.038v3.827h.5v-2.958z" transform="translate(-1317.647 -620.516)" style="fill:#122e43"/>
            </g>
            <g data-name="Group 2811">
                <path data-name="Path 1986" d="M1376.646 751.038v3.827h.5v-2.958z" transform="translate(-1315.581 -620.516)" style="fill:#122e43"/>
            </g>
            <g data-name="Group 2812">
                <path data-name="Path 1987" d="M1386.385 651.582a25.665 25.665 0 0 0 3.3 1.325c.848.17 4.143 4.45 4.722 6.012s0 3.907-1.189 6.658-.068 3.668-.612 6.419a64.06 64.06 0 0 0-.916 10.106c.1 1.528-13.741 1.817-16.9-.969 0 0 3.176-4.755 3.583-5.435s.068-4.382-.306-5.334-2.86-9.038-2.86-9.038-2.034-6.212-.2-7.639c1.6-1.24 5.948-1.682 6.729-1.954a13.342 13.342 0 0 1 4.649-.151z" transform="translate(-1315.388 -612.54)" style="fill:#e8cfc7"/>
            </g>
            <g data-name="Group 2813">
                <path data-name="Path 1988" d="m1388.286 656.97 1.488-1.74-1.292-4.582a30.288 30.288 0 0 0-.196 6.322z" transform="translate(-1316.508 -612.476)" style="fill:#cbb6ae"/>
            </g>
            <g data-name="Group 2814">
                <path data-name="Path 1989" d="M1388.206 648.234s-.066.614-.146 1.462c-.035.375-.073.8-.107 1.233a27.909 27.909 0 0 0-.134 3.253s-2.541 2.547-5.431-2.971a7.584 7.584 0 0 0 .3-5.376c-.916-3.101 5.518 2.399 5.518 2.399z" transform="translate(-1316.041 -612.014)" style="fill:#ea9771"/>
            </g>
            <g data-name="Group 2815">
                <path data-name="Path 1990" d="M1388.038 654.99v2.327l-2.926-2.186z" transform="translate(-1316.259 -612.824)" style="fill:#ea9771"/>
            </g>
            <g data-name="Group 2816">
                <path data-name="Path 1991" d="m1387.715 657.034-1.215-1.5-4.091-4.077-1.323 1.274z" transform="translate(-1315.937 -612.541)" style="fill:#cbb6ae"/>
            </g>
            <g data-name="Group 2817">
                <path data-name="Path 1992" d="M1381.185 651.878s3.432 5.21 3.6 7.5a207.809 207.809 0 0 1-2.428 24.957c-1.153 5.514-9.484-.622-9.484-.622s5.6-9.06 3.451-16.316-2.931-10.156-2.931-10.156.74-4.039 3.361-4.609c2.291-.495 4.431-.754 4.431-.754z" transform="translate(-1315.278 -612.574)" style="fill:#4f7fc1"/>
            </g>
            <g data-name="Group 2818">
                <path data-name="Path 1993" d="M1395.843 659.7s.619 2.192-1.793 7.034c0 0 .039 6.2.107 8.134s1.437 8.9 1.437 8.9l-3.3 1.755a.673.673 0 0 1-1.008-.661c.675-5.572 2.873-26.707-1.875-32.387l1.9.561a15.419 15.419 0 0 1 4.532 6.664z" transform="translate(-1316.604 -612.622)" style="fill:#4f7fc1"/>
            </g>
            <g data-name="Group 2819">
                <path data-name="Path 1994" d="m1389.8 655.229 1.872.518-3.164-5.1z" transform="translate(-1316.531 -612.476)" style="fill:#f8ded4"/>
            </g>
            <g data-name="Group 2820">
                <path data-name="Path 1995" d="m1386.517 655.512-1.711 2.241-3.512-5.854 1.218-.688z" transform="translate(-1315.953 -612.521)" style="fill:#f8ded4"/>
            </g>
            <path data-name="Rectangle 724" transform="rotate(-38.371 111.325 -78.928)" style="fill:#e22d36" d="M0 0h.619v7.323H0z"/>
            <path data-name="Path 1996" d="M1389.3 671.153a1.322 1.322 0 0 0 .719-.207c.494-.372.671-1.287 1.541-1.221s1.272 2.795 1.054 3.311-1.425.775-3.21.419-.104-2.302-.104-2.302z" transform="translate(-1316.537 -614.003)" style="fill:#ea9771"/>
            <path data-name="Path 1997" d="M1391.462 669.66a27.061 27.061 0 0 1 2.693-.739c1.267-.273 2.779-.362 2.926-.144.165.246-1.233.456-2.474.809-1.143.325-.87.443-.87.443s-.076-.038 1.23-.16c1.4-.131 2.844-.128 2.988.152.069.137.021.229-.484.357.3-.014.346.064.358.187.059.632-1.985 1.134-2.8 1.334.624-.15 1.1-.195.871.228-.257.484-3.175 1.069-4.206 1.376-1.119.332-.232-3.843-.232-3.843z" transform="translate(-1316.741 -613.918)" style="fill:#ea9771"/>
            <path data-name="Path 1998" d="M1377.117 652.8c-.861-.278-3.386.617-3.812 3.206s-.6 5.462-1 6.856-1.413 7.571-.558 8.082a9.658 9.658 0 0 0 4.736.981c2.34 0 11.418.407 11.418.407l.569-3.224s-3.448-.177-5.234-.449c-1.59-.24-3.793-.918-6.388-1.2a43.47 43.47 0 0 1 .948-4.907c.404-1.086 3.19-8.502-.679-9.752z" transform="translate(-1315.162 -612.644)" style="fill:#4f7fc1"/>
            <g data-name="Group 2821">
                <path data-name="Path 1999" d="m1390.224 675.257 9.144-1.814 6.781-14.511-9.759 1.026z" transform="translate(-1316.668 -613.139)" style="fill:#f46e21"/>
            </g>
            <g data-name="Group 2823">
                <g data-name="Group 2822">
                    <path data-name="Path 2000" d="M1401.329 671.635a7.387 7.387 0 0 0 .948-1.118 16.633 16.633 0 0 0 1.775-3.3 4.982 4.982 0 0 0-2.7.145c-.394.354.386.493.386.493s-1.187.121-1.1.457.8.241.8.241-.955.184-.811.478.6.291.6.291-.845.107-.741.427 1.444.625 1.264.891a6.308 6.308 0 0 0-.421.995z" transform="translate(-1317.49 -613.794)" style="fill:#ea9771"/>
                </g>
            </g>
            <g data-name="Group 2826">
                <g data-name="Group 2825">
                    <g data-name="Group 2824">
                        <path data-name="Path 2001" d="M1389 633.188s5.7 1.791 2.605 11.625-10.876-1.141-10.062-7.131 7.457-4.494 7.457-4.494z" transform="translate(-1315.968 -611.064)" style="fill:#ea9771"/>
                    </g>
                </g>
            </g>
            <g data-name="Group 2829">
                <g data-name="Group 2828">
                    <g data-name="Group 2827">
                        <path data-name="Path 2002" d="M1392.147 638.857a12.853 12.853 0 0 1-7.569 3.125s-1.821 2.136-1.96 2.974c0 0-4.229-7.207.969-11.527s10.471 3.648 8.56 5.428z" transform="translate(-1315.929 -610.996)" style="fill:#082a4e"/>
                    </g>
                </g>
            </g>
            <g data-name="Group 2832">
                <g data-name="Group 2831">
                    <g data-name="Group 2830">
                        <path data-name="Path 2003" d="M1384.781 642.879c-.038-.716-.479-2.344-1.543-1.889s.065 3.773.771 3.569c0 0 .857.013.772-1.68z" transform="translate(-1316.074 -611.696)" style="fill:#ea9771"/>
                    </g>
                </g>
            </g>
            <path data-name="Path 2004" d="M1388.213 649.869c-.035.375-.074.8-.108 1.233-3.293-1.627-3.8-3.972-3.813-4.046 2.346 3.034 3.921 2.813 3.921 2.813z" transform="translate(-1316.193 -612.188)" style="fill:#94644d"/>
        </g>
        <path data-name="Rectangle 725" transform="rotate(-.435 10224.4 -7625.46)" style="fill:#232946" d="M0 0h24.283v2.224H0z"/>
        <path data-name="Rectangle 726" transform="rotate(-73.02 93.362 -14.821)" style="fill:#232946" d="M0 0h23.057v2.111H0z"/>
        <g data-name="Group 2834">
            <path data-name="Rectangle 727" style="fill:#5d5653" d="M0 0h1.895v55.09H0z" transform="translate(126.656 82.345)"/>
        </g>
        <g data-name="Group 2835">
            <path data-name="Rectangle 728" transform="rotate(180 69.602 41.173)" style="fill:#a57b60" d="M0 0h83.276v3.319H0z"/>
        </g>
        <g data-name="Group 2836">
            <path data-name="Rectangle 729" transform="rotate(180 33.726 68.718)" style="fill:#5d5653" d="M0 0h1.895v55.09H0z"/>
        </g>
        <path data-name="Path 2005" d="M1372.721 690.577a16.477 16.477 0 0 0 1.857.272c.6.018 3.378-1.242 4.267-1.121a64.868 64.868 0 0 1 6.949 2.763c.263.179-.124.575-.124.575l-13.309.158z" transform="translate(-1315.238 -615.605)" style="fill:#ea9771"/>
        <g data-name="Group 2837">
            <path data-name="Path 2006" d="m1347.607 751.392-.854 1.848s-3.6-1.341-3.614-1.386.99-2.566.99-2.566z" transform="translate(-1312.898 -620.375)" style="fill:#3f4258"/>
        </g>
        <g data-name="Group 2838">
            <path data-name="Path 2007" d="m1381.105 751.531 1 2.908s-3.945.869-4.52.823c-.051 0-.746-3.293-.746-3.293z" transform="translate(-1315.596 -620.555)" style="fill:#555878"/>
        </g>
        <path data-name="Path 2008" d="M1342.587 751.542s2.556 1.089 2.691 1.049a2.763 2.763 0 0 1 1.663.428c.347.381.006.884.327 1.3s2.141 2.824 2.676 3.381c.435.454 2.828.88 3.595 1.682.58.606-.1 3.023-4.171 1.868-3.963-1.126-8.871-3.075-9.484-3.873s1.916-5.077 2.703-5.835z" transform="translate(-1312.629 -620.556)" style="fill:#39487e"/>
        <g data-name="Group 2839">
            <path data-name="Path 2009" d="M1344.2 711.621s11.243 5 13.625 6.708 7.6 4.859 7.771 5.63 1.208.018-.642 3.868-10.6 13.111-11.417 14.118c-.856 1.05-6.921 7.341-6.921 7.341l-4.564-3.437s8.773-12.9 10.043-14.8 1.844-2.178 1.092-3.015-3.751-.825-19.192-7.221c-1.544-.639-5.848-2.12-6.415-4.193-1.025-3.742-.146-8.488 4-10.575s12.62 5.576 12.62 5.576z" transform="translate(-1311.62 -616.884)" style="fill:#232d4b"/>
        </g>
        <g data-name="Group 2840">
            <path data-name="Path 2010" d="M1350.848 672.665a1.64 1.64 0 0 0-.318.54 13.326 13.326 0 0 0-.5 1.477c-.51 1.784-.972 4.072-.972 4.072s-6.434-5.361-5.526-5.7 1.583-1.9 1.583-1.9 6.411.909 5.733 1.511z" transform="translate(-1312.922 -614.118)" style="fill:#ea9771"/>
        </g>
        <g data-name="Group 2841">
            <path data-name="Path 2011" d="M1349.633 692.928s-5.223 9.986-5.448 13.73-10.9-1.177-10.9-1.177z" transform="translate(-1312.108 -615.862)" style="fill:#e9d2b7"/>
        </g>
        <g data-name="Group 2842">
            <path data-name="Path 2012" d="m1344.2 707.53.12.93.187 1.227c-.161-.01-10.426-.656-11.169-.467s1.412-2.419 1.412-2.419z" transform="translate(-1312.099 -616.973)" style="fill:#232946"/>
        </g>
        <g data-name="Group 2843">
            <path data-name="Path 2013" d="M1343.989 709.892s11.616 2.733 14.488 3.649a83.9 83.9 0 0 1 9.141 3.291c.706.4 1.782 1.006 3.073 5.2 1.461 4.758 4.8 18.14 5.558 20.224.475 1.309 1.842 6.459 1.842 6.459l-5.935 1.029s-7.069-14.23-7.642-18.024c-.964-6.385-3.439-6.419-4.439-7s-5.816.511-22.946-.856c-1.714-.137-6.394-.223-7.6-2.069-2.189-3.338-4.4-7.129-1-10.486s15.46-1.417 15.46-1.417z" transform="translate(-1311.587 -617.175)" style="fill:#33406f"/>
        </g>
        <g data-name="Group 2844">
            <path data-name="Path 2014" d="M1353.029 658.1s2.009 3.472 1.551 4.417 2.1 3.235 1.681 3.72-1.286 1.073-1.271 1.212-.743 4.668-1.729 4.768-7.731-.248-8.29-2.358-2.2-6.731-2.591-7.589 3.499-7.482 10.649-4.17z" transform="translate(-1312.834 -612.999)" style="fill:#ea9771"/>
        </g>
        <g data-name="Group 2845">
            <path data-name="Path 2015" d="M1344.575 657.26a7.467 7.467 0 0 0-1.378 1.309c-.442.208-3.051 1.5-2.508 2.9.729 1.885 3.678 6.932 3.927 7.459.033.071.033-.063.009-.346.18-1.782 2.374-3.779 2.374-3.779l1.17-.528a3.424 3.424 0 0 1-.369-2.2c1.324-1.419 5.726-2.948 5.726-2.948-.626-6.275-6-4.057-8.951-1.867z" transform="translate(-1312.696 -612.826)" style="fill:#32271f"/>
        </g>
        <g data-name="Group 2846">
            <path data-name="Path 2016" d="M1346.934 664.03a1.041 1.041 0 0 0-1.713 1c.238 1.4 2.254 2.525 2.692 1.9s-.646-2.395-.979-2.9z" transform="translate(-1313.062 -613.526)" style="fill:#ea9771"/>
        </g>
        <path data-name="Path 2017" d="M1342.216 673.222s-8.15 4.75-9.989 13.043-5.165 22.857-5.225 24.582c0 0 11.03-5.308 17.006-3.847 0 0 3.762-13.514 5.74-16.707s-.961-10.7-.961-10.7-2.814-4.499-6.571-6.371z" transform="translate(-1311.605 -614.283)" style="fill:#4f7fc1"/>
        <path data-name="Path 2018" d="M1350.854 673.326a13.377 13.377 0 0 0-.5 1.477 15.376 15.376 0 0 1-2.856-2.148 26.97 26.97 0 0 0 3.356.671z" transform="translate(-1313.247 -614.238)" style="fill:#94644d"/>
        <g data-name="Group 2847">
            <path data-name="Path 2019" d="M1346.378 677.683a21.285 21.285 0 0 1 2.06 3.07c1.362 2.361 2.464 4.694 2.758 5.219.6 1.066 2.719 2.164 3.663 2.569.869.373 15.864.691 16.049.674a38.109 38.109 0 0 1-.219 4.555s-20.7.591-21.6-.235a54.081 54.081 0 0 1-4.613-5.491c-1.044-1.475-2.647-3.893-3.5-4.936-.95-1.166-2.945-5.152-.409-7.141 3.24-2.543 5.033.549 5.811 1.716z" transform="translate(-1312.592 -614.425)" style="fill:#4f7fc1"/>
        </g>
        <path data-name="Path 2020" d="M1342.232 685.308a41.215 41.215 0 0 0 3 7.01 31.9 31.9 0 0 0 3.517 4.284l.776-2.268s-5.901-7.086-7.293-9.026z" transform="translate(-1312.825 -615.251)" style="fill:#225ba4"/>
        <g data-name="Group 2849">
            <g data-name="Group 2848">
                <path data-name="Path 2021" d="m1313.893 759.828.495 1.392 20.918-6.481-1-2.821z" transform="translate(-1310.555 -620.586)" style="fill:#7e736f"/>
            </g>
        </g>
        <g data-name="Group 2851">
            <g data-name="Group 2850">
                <path data-name="Rectangle 730" style="fill:#7e736f" d="M0 0h2.377v22.742H0z" transform="translate(23.09 110.419)"/>
            </g>
        </g>
        <g data-name="Group 2853">
            <g data-name="Group 2852">
                <path data-name="Rectangle 731" style="fill:#4e4743" d="M0 0h14.023v1.34H0z" transform="translate(17.267 109.21)"/>
            </g>
        </g>
        <g data-name="Group 2855">
            <g data-name="Group 2854">
                <path data-name="Path 2022" d="m1357.758 759.812-.5 1.392-20.918-6.481.92-3z" transform="translate(-1312.354 -620.57)" style="fill:#7e736f"/>
            </g>
        </g>
        <g data-name="Group 2857">
            <g data-name="Group 2856">
                <path data-name="Path 2023" d="M1343.019 761.055v1.621l-6.675-7.951.92-3z" transform="translate(-1312.354 -620.57)" style="fill:#7e736f"/>
            </g>
        </g>
        <g data-name="Group 2859">
            <g data-name="Group 2858">
                <path data-name="Path 2024" d="M1361.406 762.451a1.955 1.955 0 1 1-1.955-1.955 1.954 1.954 0 0 1 1.955 1.955z" transform="translate(-1314.047 -621.273)" style="fill:#b1a29b"/>
            </g>
        </g>
        <g data-name="Group 2861">
            <g data-name="Group 2860">
                <path data-name="Path 2025" d="M1343.442 762.451a1.955 1.955 0 1 1-1.955-1.955 1.956 1.956 0 0 1 1.955 1.955z" transform="translate(-1312.608 -621.273)" style="fill:#b1a29b"/>
            </g>
        </g>
        <g data-name="Group 2863">
            <g data-name="Group 2862">
                <path data-name="Path 2026" d="M1315.677 762.451a1.955 1.955 0 1 1-1.954-1.955 1.955 1.955 0 0 1 1.954 1.955z" transform="translate(-1310.385 -621.273)" style="fill:#b1a29b"/>
            </g>
        </g>
        <g data-name="Group 2864">
            <path data-name="Rectangle 732" d="M2.535 0h28.149a2.538 2.538 0 0 1 2.538 2.538 2.538 2.538 0 0 1-2.538 2.538H2.536A2.536 2.536 0 0 1 0 2.54 2.535 2.535 0 0 1 2.535 0z" style="fill:#dbc7be" transform="translate(7.76 104.134)"/>
        </g>
        <g data-name="Group 2865">
            <path data-name="Rectangle 733" d="M4.717 0h9.2a4.717 4.717 0 0 1 4.717 4.717v22.295a4.718 4.718 0 0 1-4.718 4.718h-9.2A4.717 4.717 0 0 1 0 27.013V4.717A4.717 4.717 0 0 1 4.717 0z" style="fill:#dbc7be" transform="translate(0 68.849)"/>
        </g>
        <g data-name="Group 2866">
            <path data-name="Path 2027" d="M1329.716 724.857a10.5 10.5 0 0 1-8.143-3.371c-4.58-5.057-3.758-13.945-3.72-14.322a1.275 1.275 0 0 1 2.537.252c-.01.1-.74 8.157 3.077 12.363a7.946 7.946 0 0 0 6.249 2.528 1.275 1.275 0 0 1 0 2.55z" transform="translate(-1310.866 -616.91)" style="fill:#dbc7be"/>
        </g>
        <g data-name="Group 2900">
            <g data-name="Group 2867">
                <path data-name="Rectangle 734" transform="rotate(180 36.712 68.718)" style="fill:#5d5653" d="M0 0h1.895v55.09H0z"/>
            </g>
            <g data-name="Group 2868">
                <path data-name="Rectangle 735" style="fill:#a57b60" d="M0 0h83.277v3.319H0z" transform="translate(60.874 79.026)"/>
            </g>
            <g data-name="Group 2869">
                <path data-name="Rectangle 736" style="fill:#5d5653" d="M0 0h1.895v55.09H0z" transform="translate(132.627 82.345)"/>
            </g>
            <path data-name="Path 2028" d="M1464.129 690.577a16.444 16.444 0 0 1-1.857.272c-.6.018-3.378-1.242-4.266-1.121a64.831 64.831 0 0 0-6.95 2.763c-.263.179.124.575.124.575l13.309.158z" transform="translate(-1321.532 -615.605)" style="fill:#ea9771"/>
            <g data-name="Group 2870">
                <path data-name="Path 2029" d="m1490.031 751.392.855 1.848s3.6-1.341 3.614-1.386-.992-2.566-.992-2.566z" transform="translate(-1324.661 -620.375)" style="fill:#3f4258"/>
            </g>
            <g data-name="Group 2871">
                <path data-name="Path 2030" d="m1456.463 751.531-1 2.908s3.946.869 4.521.823c.05 0 .745-3.293.745-3.293z" transform="translate(-1321.893 -620.555)" style="fill:#555878"/>
            </g>
            <path data-name="Path 2031" d="M1459.579 754.528s-2.759-.752-2.842-.87a2.834 2.834 0 0 0-1.615-.715c-.522.087-.568.712-1.089.838s-4.551 1.417-5.11 1.746-3.225-.64-3.738.049-1.011 2.508 3.177 3.135 8.675 2.5 9.677 2.242 1.691-5.309 1.54-6.425z" transform="translate(-1321.043 -620.667)" style="fill:#082a4e"/>
            <path data-name="Path 2032" d="M1494.228 751.542s-2.557 1.089-2.692 1.049a2.759 2.759 0 0 0-1.661.428c-.348.381-.007.884-.327 1.3s-2.143 2.824-2.676 3.381c-.436.454-2.829.88-3.6 1.682-.578.606.1 3.023 4.172 1.868 3.963-1.126 8.871-3.075 9.484-3.873s-1.91-5.077-2.7-5.835z" transform="translate(-1324.105 -620.556)" style="fill:#082a4e"/>
            <g data-name="Group 2872">
                <path data-name="Path 2033" d="M1490.446 711.621s-11.242 5-13.624 6.708-7.6 4.859-7.772 5.63-1.209.018.643 3.868 10.6 13.111 11.416 14.118c.855 1.05 6.922 7.341 6.922 7.341l4.564-3.437s-8.775-12.9-10.043-14.8-1.844-2.178-1.092-3.015 3.75-.825 19.191-7.221c1.545-.639 5.848-2.12 6.416-4.193 1.025-3.742.146-8.488-4-10.575s-12.621 5.576-12.621 5.576z" transform="translate(-1322.945 -616.884)" style="fill:#16225e"/>
            </g>
            <g data-name="Group 2873">
                <path data-name="Path 2034" d="M1486.531 672.665a1.638 1.638 0 0 1 .318.54 13 13 0 0 1 .5 1.477c.51 1.784.974 4.072.974 4.072s6.434-5.361 5.525-5.7-1.582-1.9-1.582-1.9-6.413.909-5.735 1.511z" transform="translate(-1324.376 -614.118)" style="fill:#ea9771"/>
            </g>
            <g data-name="Group 2874">
                <path data-name="Path 2035" d="M1486.972 692.928s5.221 9.986 5.448 13.73 10.9-1.177 10.9-1.177z" transform="translate(-1324.416 -615.862)" style="fill:#e9d2b7"/>
            </g>
            <g data-name="Group 2875">
                <path data-name="Path 2036" d="m1492.845 707.53-.12.93-.187 1.227c.161-.01 10.426-.656 11.17-.467s-1.413-2.419-1.413-2.419z" transform="translate(-1324.862 -616.973)" style="fill:#232946"/>
            </g>
            <g data-name="Group 2876">
                <path data-name="Path 2037" d="M1489.571 709.892s-11.616 2.733-14.489 3.649a84.06 84.06 0 0 0-9.142 3.291c-.7.4-1.781 1.006-3.072 5.2-1.461 4.758-4.8 18.14-5.557 20.224-.476 1.309-1.844 6.459-1.844 6.459l5.935 1.029s7.069-14.23 7.641-18.024c.965-6.385 3.44-6.419 4.44-7s5.816.511 22.947-.856c1.712-.137 6.393-.223 7.6-2.069 2.188-3.338 4.4-7.129 1-10.486s-15.459-1.417-15.459-1.417z" transform="translate(-1321.893 -617.176)" style="fill:#16225e"/>
            </g>
            <g data-name="Group 2877">
                <path data-name="Path 2038" d="M1483.783 658.1s-2.009 3.472-1.551 4.417-2.1 3.235-1.68 3.72 1.285 1.073 1.27 1.212.744 4.668 1.73 4.768 7.731-.248 8.289-2.358 2.2-6.731 2.591-7.589-3.499-7.482-10.649-4.17z" transform="translate(-1323.898 -612.999)" style="fill:#ea9771"/>
            </g>
            <g data-name="Group 2878">
                <path data-name="Path 2039" d="M1492.328 657.26a7.429 7.429 0 0 1 1.377 1.309c.443.208 3.052 1.5 2.509 2.9-.729 1.885-3.679 6.932-3.928 7.459-.033.071-.033-.063-.008-.346-.181-1.782-2.374-3.779-2.374-3.779l-1.17-.528a3.424 3.424 0 0 0 .367-2.2c-1.324-1.419-5.726-2.948-5.726-2.948.625-6.275 6.001-4.057 8.953-1.867z" transform="translate(-1324.128 -612.826)" style="fill:#32271f"/>
            </g>
            <g data-name="Group 2879">
                <path data-name="Path 2040" d="M1490.848 664.03a1.041 1.041 0 0 1 1.714 1c-.239 1.4-2.255 2.525-2.693 1.9s.648-2.395.979-2.9z" transform="translate(-1324.64 -613.527)" style="fill:#ea9771"/>
            </g>
            <path data-name="Path 2041" d="M1493.771 673.222s8.151 4.75 9.99 13.043 5.165 22.857 5.223 24.582c0 0-11.03-5.308-17-3.847 0 0-3.763-13.514-5.741-16.707s.962-10.7.962-10.7 2.809-4.499 6.566-6.371z" transform="translate(-1324.303 -614.283)" style="fill:#fff"/>
            <path data-name="Path 2042" d="M1486.881 673.326a12.973 12.973 0 0 1 .5 1.477 15.318 15.318 0 0 0 2.856-2.148 26.934 26.934 0 0 1-3.356.671z" transform="translate(-1324.409 -614.238)" style="fill:#94644d"/>
            <g data-name="Group 2880">
                <path data-name="Path 2043" d="M1488.9 677.683a21.209 21.209 0 0 0-2.06 3.07c-1.361 2.361-2.463 4.694-2.758 5.219-.6 1.066-2.719 2.164-3.664 2.569-.868.373-15.863.691-16.047.674a38.08 38.08 0 0 0 .217 4.555s20.7.591 21.6-.235a54.084 54.084 0 0 0 4.612-5.491c1.045-1.475 2.647-3.893 3.5-4.936.95-1.166 2.943-5.152.409-7.141-3.241-2.543-5.033.549-5.809 1.716z" transform="translate(-1322.602 -614.425)" style="fill:#fff"/>
            </g>
            <path data-name="Path 2044" d="M1495.16 685.308a41.265 41.265 0 0 1-3 7.01 31.87 31.87 0 0 1-3.518 4.284l-.776-2.268s5.903-7.086 7.294-9.026z" transform="translate(-1324.488 -615.251)" style="fill:#225ba4"/>
            <g data-name="Group 2882">
                <g data-name="Group 2881">
                    <path data-name="Path 2045" d="m1522.27 759.828-.494 1.392-20.918-6.481 1-2.821z" transform="translate(-1325.528 -620.586)" style="fill:#7e736f"/>
                </g>
            </g>
            <g data-name="Group 2884">
                <g data-name="Group 2883">
                    <path data-name="Rectangle 737" transform="rotate(180 88.494 66.58)" style="fill:#7e736f" d="M0 0h2.378v22.742H0z"/>
                </g>
            </g>
            <g data-name="Group 2886">
                <g data-name="Group 2885">
                    <path data-name="Rectangle 738" transform="rotate(180 91.406 55.275)" style="fill:#4e4743" d="M0 0h14.022v1.34H0z"/>
                </g>
            </g>
            <g data-name="Group 2888">
                <g data-name="Group 2887">
                    <path data-name="Path 2046" d="m1478.4 759.812.5 1.392 20.917-6.481-.919-3z" transform="translate(-1323.73 -620.57)" style="fill:#7e736f"/>
                </g>
            </g>
            <g data-name="Group 2890">
                <g data-name="Group 2889">
                    <path data-name="Path 2047" d="M1494.427 761.055v1.621l6.675-7.951-.919-3z" transform="translate(-1325.014 -620.57)" style="fill:#7e736f"/>
                </g>
            </g>
            <g data-name="Group 2892">
                <g data-name="Group 2891">
                    <path data-name="Path 2048" d="M1476.28 762.451a1.955 1.955 0 1 0 1.954-1.955 1.954 1.954 0 0 0-1.954 1.955z" transform="translate(-1323.56 -621.273)" style="fill:#b1a29b"/>
                </g>
            </g>
            <g data-name="Group 2894">
                <g data-name="Group 2893">
                    <path data-name="Path 2049" d="M1494.246 762.451a1.955 1.955 0 1 0 1.954-1.955 1.954 1.954 0 0 0-1.954 1.955z" transform="translate(-1324.999 -621.273)" style="fill:#b1a29b"/>
                </g>
            </g>
            <g data-name="Group 2896">
                <g data-name="Group 2895">
                    <path data-name="Path 2050" d="M1522.01 762.451a1.955 1.955 0 1 0 1.954-1.955 1.955 1.955 0 0 0-1.954 1.955z" transform="translate(-1327.222 -621.273)" style="fill:#b1a29b"/>
                </g>
            </g>
            <g data-name="Group 2897">
                <path data-name="Rectangle 739" d="M2.537 0h28.146a2.538 2.538 0 0 1 2.538 2.538 2.538 2.538 0 0 1-2.538 2.538H2.537A2.537 2.537 0 0 1 0 2.539 2.537 2.537 0 0 1 2.537 0z" transform="rotate(180 96.16 54.605)" style="fill:#dbc7be"/>
            </g>
            <g data-name="Group 2898">
                <path data-name="Rectangle 740" d="M4.716 0h9.2a4.717 4.717 0 0 1 4.717 4.717v22.295a4.718 4.718 0 0 1-4.718 4.718h-9.2A4.718 4.718 0 0 1 0 27.012V4.716A4.716 4.716 0 0 1 4.716 0z" transform="rotate(180 100.04 50.289)" style="fill:#dbc7be"/>
            </g>
            <g data-name="Group 2899">
                <path data-name="Path 2051" d="M1507.16 724.857a10.5 10.5 0 0 0 8.143-3.371c4.579-5.057 3.758-13.945 3.721-14.322a1.275 1.275 0 0 0-2.538.252c.01.1.74 8.157-3.077 12.363a7.946 7.946 0 0 1-6.249 2.528 1.275 1.275 0 0 0 0 2.55z" transform="translate(-1325.931 -616.91)" style="fill:#dbc7be"/>
            </g>
        </g>
        <path data-name="Path 2052" d="M1484.6 656.445s.081-2.833 5.749-1.7 8.58 4.775 4.613 10.037c-.891 1.052-2.025 2.186-2.025 2.186l1.377-5.747-2.753-.729-5.666-1.618" transform="translate(-1324.226 -612.782)" style="fill:#32271f"/>
        <path data-name="Path 2053" d="M1486.184 660.211a8.362 8.362 0 0 1 .7 1.781c.108.648 2.7.378 2.375 1.727a23.634 23.634 0 0 0 2.75-3.993" transform="translate(-1324.353 -613.202)" style="fill:#32271f"/>
        <rect data-name="Rectangle 741" width="61.552" height="61.552" rx="7.442" transform="translate(93.527)" style="opacity:.95;fill:url(#84oqvoe9ia)"/>
        <path data-name="Rectangle 742" transform="translate(110.054 47.539)" style="fill:#80b3df" d="M0 0h28.498v1.408H0z"/>
        <path data-name="Rectangle 743" transform="translate(114.091 51.975)" style="fill:#80b3df" d="M0 0h20.425v1.408H0z"/>
        <g data-name="Group 2901">
            <path data-name="Rectangle 744" style="fill:#3284c7" d="M0 0h4.79v.888H0z" transform="translate(121.908 40.661)"/>
        </g>
        <g data-name="Group 2902">
            <path data-name="Path 2054" d="M1457.977 616.1v.867h5.109v4.795h.867V616.1zm-34.691 5.662h.868v-4.792h5.109v-.87h-5.977zm39.8 24.738v4.8h-5.109v.867h5.976V646.5zm-38.932 0h-.868v5.664h5.977v-.864h-5.109z" transform="translate(-1319.316 -609.709)" style="fill:#3284c7"/>
        </g>
        <path data-name="Path 2055" d="M1377.164 754.528s2.759-.752 2.841-.87a2.84 2.84 0 0 1 1.615-.715c.522.087.568.712 1.089.838s4.552 1.417 5.11 1.746 3.224-.64 3.738.049 1.012 2.508-3.177 3.135-8.675 2.5-9.678 2.242-1.691-5.309-1.538-6.425z" transform="translate(-1315.621 -620.667)" style="fill:#39487e"/>
    </g>
</svg>
